<?xml version="1.0" encoding="UTF-8" standalone="yes"?>
<svg id="Capa_1" data-name="Capa 1" xmlns="http://www.w3.org/2000/svg" viewBox="0 0 1920 1080">
  <defs>
    <style>.cls-1,.cls-3{fill:#fff;}.cls-2{fill:#e10716;}.cls-2,.cls-3{fill-rule:evenodd;}</style>
  </defs>
  <path class="cls-1" d="M498,279.54H366.88l-84.2,296.51c-11.49,41-27.41,66.57-95.92,84l17.92,67.08c89.62-20,181-51.72,208-146.46Z"/>
  <path class="cls-1" d="M662.51,453.14H625.06l30.21-107H692c45.38,0,65.83,13.32,63.56,39.44-2.42,27.65-22.47,67.59-93.06,67.59m48.27-173.6H542.94L442,635.45h131.1l32.33-114.71h51.87c162.8,0,228.47-75.79,234-139.8C897.24,313.85,828.92,279.54,710.78,279.54Z"/>
  <path class="cls-1" d="M986.06,278.51c-144.58-1.9-205.11,50.2-209.89,105-4.06,46.6,29.05,79.88,124.34,102.41,40.25,10,60.25,19.47,67.51,32.05,22.63,39.21-42.77,44.54-81.71,44.59l-249.23.36-21.49,71.8,285.69.13c165,.07,204.73-60.35,209.81-118.71,4.54-52.23-36.76-82.45-118.62-101.91-60.56-15.87-79.38-23-77.78-41.48,1.83-21,28.9-25.59,70.68-25.74l122-.42,37-66Z"/>
  <path class="cls-1" d="M1772.34,813.78c-20,0-31,10.8-31,23.59,0,10.79,6,16.93,17.86,21.06,11.19,3.86,13.73,5.06,13.73,8.79s-3.6,5.73-9.34,5.73a28.13,28.13,0,0,1-19-7.46L1733,877.62c6.27,7.07,17.73,12,30.4,12,24,0,32.52-12.8,32.52-25.2,0-11.19-6.4-17.72-18-21.59-11.2-3.73-13.46-4.66-13.46-7.73,0-2.8,2.4-4.66,8-4.66a31.19,31.19,0,0,1,16.52,5.2L1799,823a41.54,41.54,0,0,0-26.66-9.19m-81.3,34c1.87-9.32,6-18.66,14.53-18.66,4.93,0,6.4,2.67,6.4,6C1712,839.23,1708,846.7,1691,847.76Zm44.39-14.13c0-11.19-9.6-19.85-27.46-19.85-30.66,0-41.19,26.25-41.19,45.58,0,18,10.13,30.26,31.86,30.26a49.69,49.69,0,0,0,29.18-9.73L1719.57,866c-6.67,4.39-11.87,6.52-17.87,6.52-6.26,0-11.06-2.66-11.59-10.92C1711.57,859.63,1735.43,853.5,1735.43,833.63Zm-69.87-47.84L1642,788.18l-11.2,79.58c-1.89,14.26,4.61,21.86,17.37,21.86a37.1,37.1,0,0,0,14.24-2.67l-2.4-16.53a13.42,13.42,0,0,1-3.07.54c-2,0-3.2-.93-2.66-4.8Zm-71.69,44.52a19.09,19.09,0,0,1,6.8,1.06l-4.79,32.26c-3.6,5.72-7.6,8.92-11.73,8.92-3.87,0-7.07-2.13-7.07-11.45C1577.08,847.9,1581.35,830.31,1593.87,830.31Zm.8-16.53c-30.65,0-41.58,26.79-41.58,47.32,0,17.45,7.86,28.52,23.46,28.52,9.46,0,16.13-5.06,20.92-12.13,2.4,7.59,9.46,11.2,17.6,11.73l6.66-15.2c-2.4-.93-3.47-2.26-3.47-5.33a27.3,27.3,0,0,1,.28-3.06l6.39-44A61.17,61.17,0,0,0,1594.67,813.78Zm-45.83,2.39h-23.32l-9.86,71.05H1539Zm-6.66-38.25a14.88,14.88,0,0,0-14.93,12.67c-.93,7.59,3.86,13.46,11.87,13.46A14.77,14.77,0,0,0,1554,791.52C1555,783.79,1550.31,777.92,1542.18,777.92Zm-47.74,35.86c-29.45,0-40.65,26.52-40.65,44.91,0,18.8,11.33,30.93,31.32,30.93a40.67,40.67,0,0,0,24.93-8.26l-8.4-14.93c-5.06,3.06-8.66,4.79-13.33,4.79-6.13,0-10.26-2.66-10.26-11.86,0-11.33,3.2-27.59,16.52-27.59a16.56,16.56,0,0,1,12,4.94l11.19-13.47C1511.91,817.11,1503.91,813.78,1494.44,813.78Zm-43,.26c-7.2,0-15.19,5.73-19.86,15.06l.14-12.93H1411.4l-9.86,71.05h23.32l4.41-31.33c3.59-10.39,7.85-18.79,16.52-18.79a20.46,20.46,0,0,1,6.14,1.07l6.52-22.93A18.61,18.61,0,0,0,1451.39,814Zm-96.63,33.72c1.87-9.32,6-18.66,14.53-18.66,4.93,0,6.4,2.67,6.4,6C1375.69,839.23,1371.68,846.7,1354.76,847.76Zm44.39-14.13c0-11.19-9.6-19.85-27.47-19.85-30.65,0-41.18,26.25-41.18,45.58,0,18,10.13,30.26,31.86,30.26a49.71,49.71,0,0,0,29.18-9.73L1383.28,866c-6.67,4.39-11.86,6.52-17.86,6.52-6.26,0-11.06-2.66-11.59-10.92C1375.28,859.63,1399.15,853.5,1399.15,833.63Zm-90.66-19.85c-7.85,0-16,4.93-21.44,12.66-1.46-8.13-7.19-12.66-15.6-12.66s-16.39,5.06-21.85,13.46l.13-11.07h-20.26l-9.86,71.05h23.32l5.34-38.25c3.6-9.87,8-15.86,11.59-15.86,2.4,0,4.14,1.46,3.2,8l-6.53,46.12h23.33l5.46-39.06c3.86-9.33,7.86-15,11.86-15,2.27,0,3.87,1.46,2.94,8l-6.54,46.12h23.15l7.31-52C1325.91,821.78,1319.66,813.78,1308.49,813.78ZM1182.68,831c5.73,0,8.53,3.47,8.4,11.86-.13,10-2.13,29.6-14.8,29.6-5.72,0-8.39-3.34-8.39-11.87C1167.89,850.56,1170,831,1182.68,831Zm1.74-17.19c-30.4,0-40.39,24.92-40.39,45.45,0,19.06,11.2,30.39,30.39,30.39,30.53,0,40.39-25.06,40.52-45.46C1215.07,825.51,1203.74,813.78,1184.42,813.78Zm-64.78-21.6c-35.59,0-48.38,33.46-48.38,59.05,0,25.06,14,38.39,36.78,38.39,12.53,0,23.33-5.74,30.66-12.26l-9.07-14.4c-5.73,4.26-11.33,8-18.39,8-9.33,0-14.93-6.14-14.93-19.86,0-15.07,5.33-40.92,23.6-40.92,6.12,0,10.66,2.26,14.79,6.39l13.2-12.92C1141.36,796.31,1132,792.18,1119.64,792.18Zm-108.9,21.6c-20,0-31,10.8-31,23.59,0,10.79,6,16.93,17.86,21.06,11.19,3.86,13.73,5.06,13.73,8.79s-3.6,5.73-9.34,5.73a28.15,28.15,0,0,1-19.06-7.46l-11.46,12.13c6.27,7.07,17.73,12,30.39,12,24,0,32.52-12.8,32.52-25.2,0-11.19-6.39-17.72-18-21.59-11.2-3.73-13.46-4.66-13.46-7.73,0-2.8,2.4-4.66,8-4.66a31.19,31.19,0,0,1,16.52,5.2l10-12.67A41.54,41.54,0,0,0,1010.74,813.78ZM939.29,831c5.74,0,8.53,3.47,8.41,11.86-.14,10-2.14,29.6-14.81,29.6-5.72,0-8.39-3.34-8.39-11.87C924.5,850.56,926.63,831,939.29,831ZM941,813.78c-30.39,0-40.39,24.92-40.39,45.45,0,19.06,11.2,30.39,30.4,30.39,30.52,0,40.38-25.06,40.51-45.46C971.69,825.51,960.36,813.78,941,813.78ZM883.33,871c-3.59,0-5.33-1.87-4.26-8.67l4.13-29.85h13.47l4.53-16.27H885.34l2.53-17.85-20.38,2.39-4.37,15.46H853l-2.13,16.27h9l-4.24,29.85c-2.4,17.73,4.11,27.33,20.59,27.33a43.35,43.35,0,0,0,20.53-5.33l-6-15.46A15.25,15.25,0,0,1,883.33,871Zm-54.42-57.18c-9.31,0-18.24,5.73-24,14.53l.14-12.14H784.81L775,887.22h23.33l5.33-38c4.79-10,9.33-16.12,13.6-16.12,2.52,0,4.13,1.59,3.2,8l-6.54,46.12h23.28l7.18-51.85C846.19,821.78,840.06,813.78,828.91,813.78Zm-100.74,34c1.87-9.32,6-18.66,14.53-18.66,4.93,0,6.4,2.67,6.4,6C749.1,839.23,745.09,846.7,728.17,847.76Zm44.39-14.13c0-11.19-9.6-19.85-27.47-19.85-30.65,0-41.18,26.25-41.18,45.58,0,18,10.13,30.26,31.86,30.26A49.71,49.71,0,0,0,765,879.89L756.7,866c-6.67,4.39-11.87,6.52-17.87,6.52-6.26,0-11.06-2.66-11.59-10.92C748.7,859.63,772.56,853.5,772.56,833.63ZM699.4,816.17H676.07l-9.86,71.05h23.33Zm-6.66-38.25a14.89,14.89,0,0,0-14.94,12.67c-.92,7.59,3.87,13.46,11.87,13.46a14.78,14.78,0,0,0,14.93-12.53C705.53,783.79,700.86,777.92,692.74,777.92ZM645,813.78c-7.84,0-16,4.93-21.44,12.66-1.46-8.13-7.2-12.66-15.6-12.66s-16.39,5.06-21.86,13.46l.14-11.07H566l-9.86,71.05h23.32L584.75,849c3.6-9.87,8-15.86,11.6-15.86,2.4,0,4.13,1.46,3.2,8L593,887.22h23.32l5.46-39.06c3.87-9.33,7.87-15,11.87-15,2.27,0,3.86,1.46,2.93,8l-6.53,46.12h23.15l7.31-52C662.39,821.78,656.15,813.78,645,813.78ZM521,830.31a19.13,19.13,0,0,1,6.8,1.06L523,863.63c-3.6,5.72-7.6,8.92-11.73,8.92-3.86,0-7.06-2.13-7.06-11.45C504.25,847.9,508.51,830.31,521,830.31Zm.8-16.53c-30.66,0-41.59,26.79-41.59,47.32,0,17.45,7.87,28.52,23.46,28.52,9.46,0,16.13-5.06,20.93-12.13,2.39,7.59,9.46,11.2,17.59,11.73L548.9,874c-2.4-.93-3.47-2.26-3.47-5.33a27.07,27.07,0,0,1,.27-3.06l6.4-44A61.22,61.22,0,0,0,521.84,813.78ZM443.47,831c4.13,0,7.33,2.14,7.33,11.2,0,12.53-4.14,30.38-16,30.38a19.64,19.64,0,0,1-7.87-1.46l4.67-32.52C435.21,833.51,439.2,831,443.47,831Zm9.33-17.19c-6.27,0-13.6,2.53-20.79,10v-7.6H411.35l-14.13,101,23.32-2.53,4-26.93c2.4.94,6.26,1.87,12.53,1.87,28.39,0,37.72-27.73,37.72-48.26C474.79,823.77,467.46,813.78,452.8,813.78Zm-55,2.39H374.44l-9.86,71.05h23.33Zm-6.66-38.25a14.87,14.87,0,0,0-14.93,12.67c-.93,7.59,3.86,13.46,11.86,13.46A14.78,14.78,0,0,0,403,791.52C403.9,783.79,399.24,777.92,391.11,777.92Zm-30.3,38.25H337.62l-6.27,44.66c-3.47,5.6-7.47,10-11.33,10-3.06,0-4.67-1.59-3.73-8l6.4-46.66H299.37l-7.21,50.92c-1.86,13.59,3.2,22.53,16.8,22.53,8.8,0,16.13-4.8,22.12-12.13l-.4,9.73h20.26ZM255.4,830.31a18.36,18.36,0,0,1,6.66,1.06l-4.79,32.26c-3.6,5.72-7.47,8.92-11.73,8.92-4,0-7.33-2.13-7.33-11.45C238.21,847.9,242.74,830.31,255.4,830.31Zm.8-16.53c-30.79,0-42,25.72-42,47.32,0,17.45,8,28.52,23.06,28.52,8.67,0,15.47-4.67,17.73-7.87l-5.07,35.46,23.46-2.4,13.06-93.17A61.83,61.83,0,0,0,256.2,813.78Zm-39.86-19.2H158.5l-12.93,92.64h57.58l2.4-17.46H172.22l3.07-21.06h27.19l2.14-16.93H177.56L180.35,812h31.06Z"/>
  <path class="cls-2" d="M1360.43,257c43.51,37.73,45.87,86.91-.17,170.49l-4-4.67c-29.38-33.95-68.24-68.84-141.69-105,0,0,36.7-46.12,63.05-64s61.53-11.17,67.76-6.59c0,0,5.63,3.48,15,9.8"/>
  <path class="cls-3" d="M1160.93,596.33,1221.16,649c4.91,4.72,61.41,31.43,122.56-16.77,61.17-48,128.73-115,128.73-115s85.64-74.35,23.53-144.93c-43.8-49.77-100.69-91.58-130.44-111.91l-5.11-3.47c43.51,37.73,45.87,86.91-.16,170.49l1.13,1.36q-2.88,3.48-5.79,6.93l-.1.14.1-.14-.1.1Q1274.09,532,1160.93,596.33"/>
</svg>